<?xml version="1.0" encoding="UTF-8"?>
<svg width="160px" height="30px" viewBox="0 0 160 30" version="1.1" xmlns="http://www.w3.org/2000/svg" xmlns:xlink="http://www.w3.org/1999/xlink">
    <!-- Generator: Sketch 64 (93537) - https://sketch.com -->
    <title>roast</title>
    <desc>Created with Sketch.</desc>
    <g id="Symbols" stroke="none" stroke-width="1" fill="none" fill-rule="evenodd">
        <g id="Global-/-Header" transform="translate(-59.000000, -23.000000)" fill="#342C0C">
            <g id="roast">
                <g transform="translate(59.000000, 23.000000)">
                    <path d="M17.9926978,29.5833333 L13.369574,21.25 L6.66396214,21.25 L6.66396214,29.5833333 L0.0832995267,29.5833333 L0.0832995267,0.416666667 L12.7448276,0.416666667 C20.3667343,0.416666667 24.6983097,4.08333333 24.6983097,10.5416667 C24.6983097,15.0416667 22.7824206,18.2916667 19.2421907,19.9583333 L25.4480054,29.5833333 L17.9926978,29.5833333 Z M6.66396214,15.75 L12.7448276,15.75 C16.368357,15.75 18.4508452,14.0833333 18.4508452,10.75 C18.4508452,7.5 16.368357,5.875 12.7448276,5.875 L6.66396214,5.875 L6.66396214,15.75 Z M47.9805274,0.208333333 C56.8935767,0.208333333 63.6408384,6.54166667 63.6408384,15 C63.6408384,23.4166667 56.8935767,29.875 47.9805274,29.875 C39.067478,29.875 32.3202164,23.4583333 32.3202164,15 C32.3202164,6.5 39.067478,0.208333333 47.9805274,0.208333333 Z M48.0638269,5.95833333 C43.1491548,5.95833333 39.067478,9.875 39.067478,15 C39.067478,20.125 43.1908046,24.125 48.0638269,24.125 C52.9368492,24.125 56.8935767,20.125 56.8935767,15 C56.8935767,9.875 52.9368492,5.95833333 48.0638269,5.95833333 Z M90.5882353,23.9166667 L77.093712,23.9166667 L74.802975,29.5833333 L68.0140636,29.5833333 L80.6755916,0.416666667 L87.464503,0.416666667 L99.9177823,29.5833333 L92.8789723,29.5833333 L90.5882353,23.9166667 Z M88.4640974,18.625 L83.8826234,7.29166667 L79.2594997,18.625 L88.4640974,18.625 Z M117.618932,0.125 C121.700609,0.125 125.782285,1.375 128.697769,3.29166667 L126.157133,8.75 C123.075051,6.91666667 119.409872,5.75 117.077485,5.75 C114.870047,5.75 113.370656,6.54166667 113.370656,8.125 C113.370656,13.5 128.906018,10.5 128.864451,21 C128.864451,26.7083333 123.908046,29.7916667 117.452333,29.7916667 C112.66261,29.7916667 107.872887,27.9583333 104.582556,25.1666667 L107.206491,19.7916667 C110.205274,22.4583333 114.45355,24.1666667 117.535632,24.1666667 C120.242867,24.1666667 121.867208,23.1666667 121.867208,21.375 C121.867208,15.875 106.331846,19.0833333 106.331846,8.75 C106.331846,3.45833333 110.87167,0.125 117.618932,0.125 Z M159.143746,6 L150.230696,6 L150.230696,29.5833333 L143.650034,29.5833333 L143.650034,6 L134.778634,6 L134.778634,0.416666667 L159.143746,0.416666667 L159.143746,6 Z"></path>
                </g>
            </g>
        </g>
    </g>
</svg>