<?xml version="1.0" encoding="UTF-8"?>
<svg width="20px" height="20px" viewBox="0 0 20 20" version="1.1" xmlns="http://www.w3.org/2000/svg" xmlns:xlink="http://www.w3.org/1999/xlink">
    <!-- Generator: Sketch 64 (93537) - https://sketch.com -->
    <title>Shape</title>
    <desc>Created with Sketch.</desc>
    <g id="Symbols" stroke="none" stroke-width="1" fill="none" fill-rule="evenodd">
        <g id="Global-/-Footer" transform="translate(-695.000000, -772.000000)" fill="#8E8E8E" fill-rule="nonzero">
            <g transform="translate(97.000000, 60.000000)" id="Logo-and-links">
                <g transform="translate(477.000000, 649.000000)">
                    <g id="Group" transform="translate(121.000000, 63.000000)">
                        <path d="M5.55555556,0 C2.48777778,0 0,2.48777778 0,5.55555556 L0,14.4444444 C0,17.5122222 2.48777778,20 5.55555556,20 L14.4444444,20 C17.5122222,20 20,17.5122222 20,14.4444444 L20,5.55555556 C20,2.48777778 17.5122222,0 14.4444444,0 L5.55555556,0 Z M16.6666667,2.22222222 C17.28,2.22222222 17.7777778,2.72 17.7777778,3.33333333 C17.7777778,3.94666667 17.28,4.44444444 16.6666667,4.44444444 C16.0533333,4.44444444 15.5555556,3.94666667 15.5555556,3.33333333 C15.5555556,2.72 16.0533333,2.22222222 16.6666667,2.22222222 Z M10,4.44444444 C13.0677778,4.44444444 15.5555556,6.93222222 15.5555556,10 C15.5555556,13.0677778 13.0677778,15.5555556 10,15.5555556 C6.93222222,15.5555556 4.44444444,13.0677778 4.44444444,10 C4.44444444,6.93222222 6.93222222,4.44444444 10,4.44444444 Z M10,6.66666667 C8.15905083,6.66666667 6.66666667,8.15905083 6.66666667,10 C6.66666667,11.8409492 8.15905083,13.3333333 10,13.3333333 C11.8409492,13.3333333 13.3333333,11.8409492 13.3333333,10 C13.3333333,8.15905083 11.8409492,6.66666667 10,6.66666667 Z" id="Shape"></path>
                    </g>
                </g>
            </g>
        </g>
    </g>
</svg>