<?xml version="1.0" encoding="UTF-8"?>
<svg width="20px" height="20px" viewBox="0 0 20 20" version="1.1" xmlns="http://www.w3.org/2000/svg" xmlns:xlink="http://www.w3.org/1999/xlink">
    <!-- Generator: Sketch 64 (93537) - https://sketch.com -->
    <title>Shape</title>
    <desc>Created with Sketch.</desc>
    <g id="Symbols" stroke="none" stroke-width="1" fill="none" fill-rule="evenodd">
        <g id="Global-/-Footer" transform="translate(-725.000000, -772.000000)" fill="#8E8E8E" fill-rule="nonzero">
            <g transform="translate(97.000000, 60.000000)" id="Logo-and-links">
                <g transform="translate(477.000000, 649.000000)">
                    <g id="Group" transform="translate(121.000000, 63.000000)">
                        <path d="M47.7777778,0 L32.2222222,0 C30.9944444,0 30,0.994444444 30,2.22222222 L30,17.7777778 C30,19.0055556 30.9944444,20 32.2222222,20 L47.7777778,20 C49.0055556,20 50,19.0055556 50,17.7777778 L50,2.22222222 C50,0.994444444 49.0055556,0 47.7777778,0 Z M45.6111111,7.23777778 C45.6111111,7.33333333 45.6111111,7.42777778 45.6111111,7.61888889 C45.6111111,11.2377778 42.8488889,15.4288889 37.8011111,15.4288889 C36.2777778,15.4288889 34.8488889,14.9522222 33.6111111,14.1911111 C33.8011111,14.1911111 34.0877778,14.1911111 34.2777778,14.1911111 C35.5155556,14.1911111 36.7544444,13.7144444 37.7066667,13.0477778 C36.4688889,13.0477778 35.5166667,12.1911111 35.1355556,11.1433333 C35.3255556,11.1433333 35.5166667,11.2388889 35.6122222,11.2388889 C35.8977778,11.2388889 36.0888889,11.2388889 36.3744444,11.1433333 C35.1366667,10.8577778 34.1844444,9.81 34.1844444,8.47666667 C34.5655556,8.66666667 34.9466667,8.76222222 35.4222222,8.85777778 C34.66,8.19111111 34.1844444,7.42888889 34.1844444,6.47666667 C34.1844444,6 34.28,5.52444444 34.5655556,5.14333333 C35.8988889,6.76222222 37.8988889,7.90555556 40.1844444,8 C40.1844444,7.81 40.0888889,7.61888889 40.0888889,7.33333333 C40.0888889,5.81 41.3266667,4.57111111 42.8511111,4.57111111 C43.6133333,4.57111111 44.3744444,4.85666667 44.8511111,5.42777778 C45.5177778,5.33222222 46.0888889,5.04666667 46.5655556,4.76111111 C46.3755556,5.42777778 45.8988889,5.90444444 45.3277778,6.28444444 C45.8988889,6.18888889 46.3755556,6.09444444 46.9466667,5.80777778 C46.5633333,6.38111111 46.0877778,6.85666667 45.6111111,7.23777778 Z" id="Shape"></path>
                    </g>
                </g>
            </g>
        </g>
    </g>
</svg>